<?xml version="1.0" encoding="UTF-8"?>
<svg width="980px" height="605px" viewBox="0 0 980 605" version="1.1" xmlns="http://www.w3.org/2000/svg" xmlns:xlink="http://www.w3.org/1999/xlink">
    <!-- Generator: Sketch 49 (51002) - http://www.bohemiancoding.com/sketch -->
    <title>banner</title>
    <desc>Created with Sketch.</desc>
    <defs></defs>
    <g id="Page-1" stroke="none" stroke-width="1" fill="none" fill-rule="evenodd">
        <g id="github-banner" transform="translate(-16.000000, -21.000000)">
            <g id="Group" transform="translate(379.000000, 177.000000)">
                <path d="M127.5,4.03991332 L3.5,75.5222663 L3.5,218.477734 L127.5,289.960087 L251.5,218.477734 L251.5,75.5222663 L127.5,4.03991332 Z" id="Polygon" stroke="#343334" stroke-width="7"></path>
                <path d="M64.9203499,213.964854 C64.6831788,213.024954 63.7257106,212.4575 62.7875675,212.689401 C61.8476675,212.926572 61.2767002,213.880526 61.5138712,214.822183 L61.7510422,215.739245 C61.9636178,216.522787 62.673374,217.037536 63.4463759,217.037536 C63.5992194,217.037536 63.7538198,217.018211 63.9066633,216.977804 C64.8430497,216.723065 65.3964487,215.75857 65.1452231,214.822183 L64.9203499,213.964854 Z M65.0099478,187.287506 C64.6129059,187.791714 64.2281618,188.322274 63.8627428,188.8827 C63.3321824,189.694352 63.5605693,190.783582 64.3722213,191.312386 C64.6691243,191.507393 65.0029205,191.600505 65.3314463,191.600505 C65.9059272,191.600505 66.4681104,191.319413 66.8036635,190.802907 C67.1111074,190.333836 67.4343627,189.887603 67.768159,189.464209 C68.3689923,188.701748 68.2389874,187.596706 67.4765265,186.995873 C66.7140656,186.398554 65.6107811,186.528558 65.0099478,187.287506 L65.0099478,187.287506 Z M62.0778112,208.984262 C63.0440635,208.88588 63.7467925,208.025037 63.6501673,207.060542 C63.5904353,206.47025 63.5430011,205.894012 63.5096215,205.331829 C63.4534032,204.363819 62.6628331,203.624197 61.654417,203.680416 C60.6864079,203.738391 59.9467856,204.567611 60.0030039,205.537377 C60.0398972,206.148751 60.0908451,206.772423 60.1540907,207.411906 C60.2454454,208.31667 61.0079064,208.993047 61.9003721,208.993047 C61.9583473,208.993047 62.0198361,208.989533 62.0778112,208.984262 L62.0778112,208.984262 Z M72.5010386,181.121059 C71.9493963,181.414448 71.38897,181.737704 70.82503,182.092582 C70.0045939,182.610844 69.7586388,183.696561 70.2769014,184.51524 C70.6106977,185.0458 71.1799081,185.335676 71.76493,185.335676 C72.0846717,185.335676 72.4096838,185.247835 72.6995595,185.065125 C73.1861993,184.757681 73.6710823,184.478347 74.1524516,184.221851 C75.0080242,183.76859 75.3347931,182.703956 74.8780193,181.846627 C74.4212455,180.989297 73.3583679,180.659015 72.5010386,181.121059 L72.5010386,181.121059 Z M61.8178015,199.955952 C61.9179404,199.97352 62.0198361,199.982304 62.1164613,199.982304 C62.9579792,199.982304 63.7011151,199.377957 63.8469314,198.522385 C63.9435566,197.958445 64.0595069,197.410316 64.1912686,196.881513 C64.4284396,195.941613 63.8557155,194.987658 62.9123019,194.752244 C61.970645,194.515073 61.0184473,195.089554 60.7847899,196.031211 C60.6319464,196.642585 60.4949142,197.275041 60.3842344,197.928579 C60.2190931,198.88429 60.8603333,199.792568 61.8178015,199.955952 L61.8178015,199.955952 Z M88.0348623,177.811206 C88.0348623,182.844502 92.1300154,186.939655 97.1633116,186.939655 C102.196608,186.939655 106.291761,182.844502 106.291761,177.811206 C106.291761,172.777909 102.196608,168.682756 97.1633116,168.682756 C92.1300154,168.682756 88.0348623,172.777909 88.0348623,177.811206 L88.0348623,177.811206 Z M80.7985108,178.322441 C80.8810815,178.313657 80.954868,178.341766 81.033925,178.343523 C81.0286546,178.166084 81.0075727,177.992158 81.0075727,177.811206 C81.0075727,168.888305 88.2404106,161.655467 97.1633116,161.655467 C106.086213,161.655467 113.31905,168.888305 113.31905,177.811206 C113.31905,186.734107 106.086213,193.966944 97.1633116,193.966944 C89.5896502,193.966944 83.2527917,188.749182 81.5029966,181.716622 C81.4081282,181.746488 81.3238007,181.797436 81.221905,181.809733 C81.1885254,181.815004 80.9144611,181.851897 80.4594441,181.943252 C80.3399802,181.967847 80.2240299,181.978388 80.1098364,181.978388 C79.2894004,181.978388 78.5568054,181.403907 78.3881505,180.569417 C78.1966568,179.617219 78.8115447,178.691374 79.7619856,178.49988 C80.4190372,178.366361 80.7985108,178.322441 80.7985108,178.322441 L80.7985108,178.322441 Z M173.918883,202.517399 C156.36647,202.517399 138.626077,193.973972 127.401739,202.45064 C118.677359,192.687978 99.5086695,202.517399 80.7826994,202.517399 C78.4742348,202.517399 76.8403899,204.818836 77.7381262,206.902428 C82.1547777,217.165784 92.4989481,224.37754 104.584129,224.37754 C113.812718,224.37754 122.017078,220.16468 127.350791,213.606462 C132.684504,220.16468 140.887108,224.37754 150.117453,224.37754 C162.202634,224.37754 172.546804,217.165784 176.963456,206.902428 C177.859435,204.818836 176.227347,202.517399 173.918883,202.517399 L173.918883,202.517399 Z M175.677462,154.870619 L79.0223634,154.870619 C73.5305365,154.870619 69.0769917,150.417074 69.0769917,144.92349 C69.0769917,139.431663 73.5305365,134.978118 79.0223634,134.978118 L88.0331055,134.978118 L88.0331055,76.1157834 C88.0331055,70.5290882 92.5621937,66 98.148889,66 L156.552693,66 C162.139388,66 166.668477,70.5290882 166.668477,76.1157834 L166.668477,134.978118 L175.677462,134.978118 C181.171046,134.978118 185.622834,139.431663 185.622834,144.92349 C185.622834,150.417074 181.171046,154.870619 175.677462,154.870619 Z M140.973192,178.037836 C140.973192,171.105414 146.593267,165.487096 153.525688,165.487096 C160.458109,165.487096 166.078184,171.105414 166.078184,178.037836 C166.078184,184.970257 160.458109,190.590332 153.525688,190.590332 C146.593267,190.590332 140.973192,184.970257 140.973192,178.037836 L140.973192,178.037836 Z" id="Shape" fill="#343334" fill-rule="nonzero"></path>
            </g>
        </g>
    </g>
</svg>