<?xml version="1.0" encoding="UTF-8" standalone="no"?>
<svg width="980px" height="400px" viewBox="0 0 980 400" version="1.1" xmlns="http://www.w3.org/2000/svg" xmlns:xlink="http://www.w3.org/1999/xlink">
    <!-- Generator: Sketch 42 (36781) - http://www.bohemiancoding.com/sketch -->
    <title>banner</title>
    <desc>Created with Sketch.</desc>
    <defs></defs>
    <g id="Page-1" stroke="none" stroke-width="1" fill="none" fill-rule="evenodd">
        <g id="github-banner" transform="translate(-16.000000, -21.000000)">
            <polygon id="Polygon" fill="#EBCB8B" points="506.5 74 634 147.5 634 294.5 506.5 368 379 294.5 379 147.5"></polygon>
            <path d="M448.92035,279.964854 C448.683179,279.024954 447.725711,278.4575 446.787567,278.689401 C445.847667,278.926572 445.2767,279.880526 445.513871,280.822183 L445.751042,281.739245 C445.963618,282.522787 446.673374,283.037536 447.446376,283.037536 C447.599219,283.037536 447.75382,283.018211 447.906663,282.977804 C448.84305,282.723065 449.396449,281.75857 449.145223,280.822183 L448.92035,279.964854 Z M449.009948,253.287506 C448.612906,253.791714 448.228162,254.322274 447.862743,254.8827 C447.332182,255.694352 447.560569,256.783582 448.372221,257.312386 C448.669124,257.507393 449.002921,257.600505 449.331446,257.600505 C449.905927,257.600505 450.46811,257.319413 450.803663,256.802907 C451.111107,256.333836 451.434363,255.887603 451.768159,255.464209 C452.368992,254.701748 452.238987,253.596706 451.476526,252.995873 C450.714066,252.398554 449.610781,252.528558 449.009948,253.287506 L449.009948,253.287506 Z M446.077811,274.984262 C447.044064,274.88588 447.746793,274.025037 447.650167,273.060542 C447.590435,272.47025 447.543001,271.894012 447.509621,271.331829 C447.453403,270.363819 446.662833,269.624197 445.654417,269.680416 C444.686408,269.738391 443.946786,270.567611 444.003004,271.537377 C444.039897,272.148751 444.090845,272.772423 444.154091,273.411906 C444.245445,274.31667 445.007906,274.993047 445.900372,274.993047 C445.958347,274.993047 446.019836,274.989533 446.077811,274.984262 L446.077811,274.984262 Z M456.501039,247.121059 C455.949396,247.414448 455.38897,247.737704 454.82503,248.092582 C454.004594,248.610844 453.758639,249.696561 454.276901,250.51524 C454.610698,251.0458 455.179908,251.335676 455.76493,251.335676 C456.084672,251.335676 456.409684,251.247835 456.69956,251.065125 C457.186199,250.757681 457.671082,250.478347 458.152452,250.221851 C459.008024,249.76859 459.334793,248.703956 458.878019,247.846627 C458.421245,246.989297 457.358368,246.659015 456.501039,247.121059 L456.501039,247.121059 Z M445.817801,265.955952 C445.91794,265.97352 446.019836,265.982304 446.116461,265.982304 C446.957979,265.982304 447.701115,265.377957 447.846931,264.522385 C447.943557,263.958445 448.059507,263.410316 448.191269,262.881513 C448.42844,261.941613 447.855715,260.987658 446.912302,260.752244 C445.970645,260.515073 445.018447,261.089554 444.78479,262.031211 C444.631946,262.642585 444.494914,263.275041 444.384234,263.928579 C444.219093,264.88429 444.860333,265.792568 445.817801,265.955952 L445.817801,265.955952 Z M472.034862,243.811206 C472.034862,248.844502 476.130015,252.939655 481.163312,252.939655 C486.196608,252.939655 490.291761,248.844502 490.291761,243.811206 C490.291761,238.777909 486.196608,234.682756 481.163312,234.682756 C476.130015,234.682756 472.034862,238.777909 472.034862,243.811206 L472.034862,243.811206 Z M464.798511,244.322441 C464.881081,244.313657 464.954868,244.341766 465.033925,244.343523 C465.028655,244.166084 465.007573,243.992158 465.007573,243.811206 C465.007573,234.888305 472.240411,227.655467 481.163312,227.655467 C490.086213,227.655467 497.31905,234.888305 497.31905,243.811206 C497.31905,252.734107 490.086213,259.966944 481.163312,259.966944 C473.58965,259.966944 467.252792,254.749182 465.502997,247.716622 C465.408128,247.746488 465.323801,247.797436 465.221905,247.809733 C465.188525,247.815004 464.914461,247.851897 464.459444,247.943252 C464.33998,247.967847 464.22403,247.978388 464.109836,247.978388 C463.2894,247.978388 462.556805,247.403907 462.38815,246.569417 C462.196657,245.617219 462.811545,244.691374 463.761986,244.49988 C464.419037,244.366361 464.798511,244.322441 464.798511,244.322441 L464.798511,244.322441 Z M557.918883,268.517399 C540.36647,268.517399 522.626077,259.973972 511.401739,268.45064 C502.677359,258.687978 483.50867,268.517399 464.782699,268.517399 C462.474235,268.517399 460.84039,270.818836 461.738126,272.902428 C466.154778,283.165784 476.498948,290.37754 488.584129,290.37754 C497.812718,290.37754 506.017078,286.16468 511.350791,279.606462 C516.684504,286.16468 524.887108,290.37754 534.117453,290.37754 C546.202634,290.37754 556.546804,283.165784 560.963456,272.902428 C561.859435,270.818836 560.227347,268.517399 557.918883,268.517399 L557.918883,268.517399 Z M559.677462,220.870619 L463.022363,220.870619 C457.530537,220.870619 453.076992,216.417074 453.076992,210.92349 C453.076992,205.431663 457.530537,200.978118 463.022363,200.978118 L472.033106,200.978118 L472.033106,142.115783 C472.033106,136.529088 476.562194,132 482.148889,132 L540.552693,132 C546.139388,132 550.668477,136.529088 550.668477,142.115783 L550.668477,200.978118 L559.677462,200.978118 C565.171046,200.978118 569.622834,205.431663 569.622834,210.92349 C569.622834,216.417074 565.171046,220.870619 559.677462,220.870619 Z M524.973192,244.037836 C524.973192,237.105414 530.593267,231.487096 537.525688,231.487096 C544.458109,231.487096 550.078184,237.105414 550.078184,244.037836 C550.078184,250.970257 544.458109,256.590332 537.525688,256.590332 C530.593267,256.590332 524.973192,250.970257 524.973192,244.037836 L524.973192,244.037836 Z" id="Shape" fill="#333D45" fill-rule="nonzero"></path>
        </g>
    </g>
</svg>